<svg xmlns="http://www.w3.org/2000/svg" width="10" height="10" viewBox="0 0 10 10" fill="none">
    <path d="M1.46447 1.46446C2.36892 0.560027 3.61939 0 5 0C6.38061 0 7.63108 0.560027 8.53553 1.46446C9.43997 2.36891 10 3.61939 10 5C10 6.38061 9.43997 7.63108 8.53553 8.53553C7.63108 9.43997 6.38061 10 5 10C3.61939 10 2.36892 9.43997 1.46447 8.53553C0.560029 7.63109 0 6.38061 0 5C0 3.61939 0.560032 2.36891 1.46447 1.46446ZM7.57225 3.85132C7.70848 3.71509 7.70848 3.49422 7.57225 3.35799C7.43602 3.22176 7.21515 3.22176 7.07892 3.35799L4.53488 5.90202L3.3862 4.75333C3.24997 4.61711 3.0291 4.61711 2.89287 4.75333C2.75664 4.88956 2.75664 5.11044 2.89287 5.24667L4.28822 6.64201C4.42445 6.77824 4.64532 6.77824 4.78155 6.64201L7.57225 3.85132Z" fill="#2B2B2B"/>
</svg>
